<?xml version="1.0" encoding="UTF-8" standalone="no"?>
<svg
   xmlns:dc="http://purl.org/dc/elements/1.1/"
   xmlns:cc="http://creativecommons.org/ns#"
   xmlns:rdf="http://www.w3.org/1999/02/22-rdf-syntax-ns#"
   xmlns:svg="http://www.w3.org/2000/svg"
   xmlns="http://www.w3.org/2000/svg"
   xmlns:sodipodi="http://sodipodi.sourceforge.net/DTD/sodipodi-0.dtd"
   xmlns:inkscape="http://www.inkscape.org/namespaces/inkscape"
   id="bfc59778-adb9-4ded-81d5-12977ec092f3"
   data-name="Layer 1"
   width="1160"
   height="960"
   viewBox="0 0 1160 960.00001"
   version="1.1"
   sodipodi:docname="illustration.svg"
   inkscape:version="0.92.2 2405546, 2018-03-11">
  <metadata
     id="metadata400">
    <rdf:RDF>
      <cc:Work
         rdf:about="">
        <dc:format>image/svg+xml</dc:format>
        <dc:type
           rdf:resource="http://purl.org/dc/dcmitype/StillImage" />
        <dc:title>on the office</dc:title>
      </cc:Work>
    </rdf:RDF>
  </metadata>
  <sodipodi:namedview
     pagecolor="#ffffff"
     bordercolor="#666666"
     borderopacity="1"
     objecttolerance="10"
     gridtolerance="10"
     guidetolerance="10"
     inkscape:pageopacity="0"
     inkscape:pageshadow="2"
     inkscape:window-width="1440"
     inkscape:window-height="843"
     id="namedview398"
     showgrid="false"
     inkscape:zoom="0.28496221"
     inkscape:cx="94.667724"
     inkscape:cy="414.09"
     inkscape:window-x="0"
     inkscape:window-y="22"
     inkscape:window-maximized="1"
     inkscape:current-layer="bfc59778-adb9-4ded-81d5-12977ec092f3">
    <inkscape:grid
       type="xygrid"
       id="grid1207" />
  </sodipodi:namedview>
  <defs
     id="defs9">
    <linearGradient
       id="e507827f-2863-48fa-82fe-b741cb149057"
       x1="-925.56"
       y1="683.71002"
       x2="-925.56"
       y2="144.42"
       gradientTransform="matrix(-1,0,0,1,-675.59412,30.013527)"
       gradientUnits="userSpaceOnUse">
      <stop
         offset="0"
         stop-color="gray"
         stop-opacity="0.25"
         id="stop2" />
      <stop
         offset="0.54"
         stop-color="gray"
         stop-opacity="0.12"
         id="stop4" />
      <stop
         offset="1"
         stop-color="gray"
         stop-opacity="0.1"
         id="stop6" />
    </linearGradient>
  </defs>
  <title
     id="title11">on the office</title>
  <path
     d="m 994.58584,338.37352 h -91.93996 v 111.45 h 85.21996 c 0.22,1.15 0.43,2.3 0.68,3.44 h -85.89996 v 89.86 l 0.43,-0.14 q 3.64,-1.28 7.23,-2.72 l 1.54,-0.63 q 3.68,-1.51 7.22996,-3.23 c 0.85,-0.39 1.69,-0.8 2.52,-1.22 a 149.83,149.83 0 0 0 36.17,-25 c 0.31,-0.27 0.6,-0.55 0.88,-0.82 1.47,-1.42 2.91,-2.85 4.31,-4.32 l 1.54,-1.64 c 1.65,-1.79 3.24,-3.64 4.79,-5.51 l 0.68,-0.82 a 116.4,116.4 0 0 0 15.58,-25 c 0.13,-0.27 0.24,-0.55 0.36,-0.82 1.25,-2.82 2.38,-5.68 3.36,-8.59 0.42,-1.23 0.82,-2.46 1.17,-3.69 0.12,-0.37 0.23,-0.73 0.33,-1.09 5.1,-17.85 5.69,-36.4 5.69,-54.85 0,-2.15 0,-4.31 0,-6.45 0,-7.45 -0.11,-15 -0.25,-22.45 0,-1.94 -0.09,-3.87 -0.14,-5.82 q -0.18,-7.43 -0.54,-14.84 c -0.06,-1.38 -0.12,-2.75 -0.21,-4.11 0,-0.79 -0.08,-1.58 -0.13,-2.37 -0.2,-2.93 -0.38,-5.77 -0.6,-8.62 z"
     id="path13"
     inkscape:connector-curvature="0"
     style="opacity:0.1;fill:#ff6347" />
  <path
     d="m 902.64588,214.30354 h 50.42996 a 344.83,344.83 0 0 0 -26.85,-32.84 c -7.5,-8.18 -15.36996,-16.16001 -23.60996,-23.84001 z"
     id="path15"
     inkscape:connector-curvature="0"
     style="opacity:0.1;fill:#ff6347" />
  <path
     d="m 902.64588,217.74352 v 117.19 h 91.64996 c 0,-0.34 -0.06,-0.69 -0.09,-1 -0.08,-0.92 -0.16,-1.84 -0.25,-2.77 -0.09,-0.93 -0.21,-2.16 -0.33,-3.25 -0.12,-1.09 -0.24,-2.35 -0.38,-3.51 -0.14,-1.16 -0.26,-2.35 -0.41,-3.52 -0.15,-1.17 -0.29,-2.34 -0.45,-3.5 -0.16,-1.16 -0.31,-2.34 -0.49,-3.5 -0.14,-1 -0.27,-1.92 -0.42,-2.89 -0.21,-1.36 -0.43,-2.73 -0.66,-4.08 a 5.78,5.78 0 0 0 -0.11,-0.6 251.24,251.24 0 0 0 -6.74,-29.43 202.47,202.47 0 0 0 -11.37,-29.87 216.88,216.88 0 0 0 -17.11,-29.3 z"
     id="path17"
     inkscape:connector-curvature="0"
     style="opacity:0.1;fill:#ff6347" />
  <path
     d="m 684.30588,338.37354 v 111.45 h 196.38 v -111.45 z m 0,114.89 v 75.47 c 22.86,-7.31 49,-4.36 72.7,1.64 18.35,4.66 36.23,11 54.55,15.56 a 200.08,200.08 0 0 0 24.87,4.7 l 2.06,0.22 c 1,0.1 2,0.2 3,0.28 l 3,0.21 h 0.31 1.34 a 3.55,3.55 0 0 0 0.46,0 l 1.62,0.06 h 0.05 c 0.77,0 1.55,0 2.33,0.06 h 1 c 0.77,0 1.55,0 2.33,0 h 1.71 1.38 c 0.59,0 1.17,0 1.75,-0.06 0.94,0 1.88,-0.08 2.83,-0.15 l 1.75,-0.11 2.16,-0.17 c 1.53,-0.12 3,-0.28 4.55,-0.46 0.6,-0.07 1.21,-0.14 1.81,-0.23 l 0.89,-0.11 c 1.51,-0.2 3,-0.44 4.51,-0.69 1.11,-0.17 2.22,-0.38 3.34,-0.58 v -95.64 z m 146.06,-239 v 3.44 h -146.06 v 117.23 h 196.38 v -117.19 h -9.85 v -3.44 h 9.85 v -75.74001 c -38.2,-30.77 -82.85,-54.870001 -132.58,-66.000001 a 282,282 0 0 0 -63.8,-6.65 V 214.30354 Z m -449,-0.66 0.69,0.66 h 280.28 V 66.943529 c -49.9,4.15 -98.56,20.91 -137.79,48.680001 -18.85,13.33 -35.78,29.13 -56.93,39.36 a 89.15,89.15 0 0 1 -35.6,9.2 z m -1.93,-60.44001 v 33.35001 l 27.08,-26.43001 c -10.07,-3.48 -18.01,-5.86 -27.12,-6.88 z m -0.9,419.56001 h 0.9 v 73.1 q 15.33,-1.14 30.54,-3.14 a 546.44,546.44 0 0 0 132.25,-34.26 v 0 q 6.84,-2.74 13.58,-5.66 4.49,-1.95 8.93,-4 6.66,-3.06 13.22,-6.29 a 465.15,465.15 0 0 0 55.87,-32.46 c 1.11,-0.75 2.23,-1.51 3.33,-2.28 q 3.32,-2.3 6.59,-4.64 c 1.09,-0.79 2.18,-1.58 3.26,-2.38 l 2.22,-1.7 c 2.24,-1.67 4.47,-3.35 6.73,-5 v 0 c 2.09,-1.5 4.2,-3 6.34,-4.4 v -86.4 h -225.15 c 0.16,-0.51 0.31,-1 0.48,-1.54 -0.18,0.52 -0.34,1 -0.49,1.54 h -57.74 v 119.49 z m 0.9,-355 v 117.21 h 282.9 v -117.19 z m 0,120.63 v 111.47 h 282.9 v -111.45 z m -56.56,-181.76001 34.56,33.73001 v -37.31001 q -17.37,1.08 -34.56,3.58 z M 82.225882,338.37354 v 111.45 H 357.43588 v -111.45 z m 66.519998,275.25 a 511.15,511.15 0 0 0 129.73,30.78 h 0.19 q 12.59,1.33 25.25,2.06 h 0.31 v 0 c 17.69,1 35.45,1.23 53.18,0.57 v -193.77 H 82.225882 l 1,128.32 M 5.9958845,449.82354 H 60.275882 v -111.45 h -21.47 c -2.23,3.92 -4.39,7.86 -6.44,11.86 q -1.65,3.19 -3.21,6.45 c -14.129998,29.33 -23.1099975,61.57 -23.1599975,93.14 z m 0,3.44 c 0.44,22.64 5.5399995,44.86 16.7299975,65.39 9.3,17.05 22.22,32 37.51,45 v -110.39 z m 34.7799975,-118.33 h 19.46 v -29 a 309.35,309.35 0 0 0 -19.42,29 z m 121.929998,-120.63 h 188.24 l 0.68,-0.66 -1,-1 v 0 l -52.93,-51.63001 a 429.83,429.83 0 0 0 -46.47,12.45001 c -1.44,0.47 -2.88,1 -4.31,1.45 a 421.47,421.47 0 0 0 -84.21,39.39 z m -80.479998,65.37 v 55.26 H 323.58588 v 0 h 0.05 33.83 v -114 l -3.86,-3.14 h -196.44 a 377.73,377.73 0 0 0 -74.939998,61.88 z"
     id="path19"
     inkscape:connector-curvature="0"
     style="opacity:0.1;fill:#ff6347" />
  <path
     d="m 902.64588,276.85352 v 58.08 h 91.64996 c 0,-0.34 -0.06,-0.69 -0.09,-1 -0.08,-0.92 -0.16,-1.84 -0.25,-2.77 -0.09,-0.93 -0.21,-2.16 -0.33,-3.25 -0.12,-1.09 -0.24,-2.35 -0.38,-3.51 -0.14,-1.16 -0.26,-2.35 -0.41,-3.52 -0.15,-1.17 -0.29,-2.34 -0.45,-3.5 -0.16,-1.16 -0.31,-2.34 -0.49,-3.5 -0.14,-1 -0.27,-1.92 -0.42,-2.89 -0.21,-1.36 -0.43,-2.73 -0.66,-4.08 a 5.78,5.78 0 0 0 -0.11,-0.6 251.24,251.24 0 0 0 -6.74,-29.43 z"
     id="path21"
     inkscape:connector-curvature="0"
     style="opacity:0.1;fill:#ff6347" />
  <path
     d="m 994.58584,338.37352 h -91.93996 v 111.45 h 85.21996 c 0.22,1.15 0.43,2.3 0.68,3.44 h -85.89996 v 89.86 l 0.43,-0.14 q 3.64,-1.28 7.23,-2.72 l 1.54,-0.63 q 3.68,-1.51 7.22996,-3.23 c 0.85,-0.39 1.69,-0.8 2.52,-1.22 a 149.83,149.83 0 0 0 36.17,-25 c 0.31,-0.27 0.6,-0.55 0.88,-0.82 1.47,-1.42 2.91,-2.85 4.31,-4.32 l 1.54,-1.64 c 1.65,-1.79 3.24,-3.64 4.79,-5.51 l 0.68,-0.82 a 116.4,116.4 0 0 0 15.58,-25 c 0.13,-0.27 0.24,-0.55 0.36,-0.82 1.25,-2.82 2.38,-5.68 3.36,-8.59 0.42,-1.23 0.82,-2.46 1.17,-3.69 0.12,-0.37 0.23,-0.73 0.33,-1.09 5.1,-17.85 5.69,-36.4 5.69,-54.85 0,-2.15 0,-4.31 0,-6.45 0,-7.45 -0.11,-15 -0.25,-22.45 0,-1.94 -0.09,-3.87 -0.14,-5.82 q -0.18,-7.43 -0.54,-14.84 c -0.06,-1.38 -0.12,-2.75 -0.21,-4.11 0,-0.79 -0.08,-1.58 -0.13,-2.37 -0.2,-2.93 -0.38,-5.77 -0.6,-8.62 z"
     id="path23"
     inkscape:connector-curvature="0"
     style="opacity:0.1;fill:#ff6347" />
  <polygon
     points="830.37,168.6 811.56,168.6 811.56,269.01 880.69,269.01 880.69,168.6 870.84,168.6 870.84,134.6 830.37,134.6 "
     id="polygon25"
     style="opacity:0.1;fill:#ff6347"
     transform="translate(-0.00411552,65.923529)" />
  <rect
     x="811.55591"
     y="338.37354"
     width="69.129997"
     height="111.44"
     id="rect27"
     style="opacity:0.1;fill:#ff6347" />
  <path
     d="m 880.68588,453.26352 h -69.12 v 92.67 a 201.42,201.42 0 0 0 24.86,4.7 l 2.06,0.22 c 1,0.11 2,0.2 3,0.28 l 3,0.21 c 0.1,0 0.21,0 0.31,0 0.44,0 0.89,0 1.34,0.06 h 0.46 c 0.54,0 1.08,0 1.63,0.06 v 0 c 0.77,0 1.55,0 2.33,0.06 h 1 c 0.78,0 1.55,0 2.33,0 h 1.71 1.38 l 1.76,-0.06 c 0.93,0 1.88,-0.08 2.82,-0.15 l 1.74,-0.11 2.17,-0.17 c 1.52,-0.13 3,-0.28 4.54,-0.46 l 1.81,-0.23 0.89,-0.11 c 1.51,-0.21 3,-0.43 4.51,-0.69 1.12,-0.17 2.22,-0.38 3.34,-0.58 z"
     id="path29"
     inkscape:connector-curvature="0"
     style="opacity:0.1;fill:#ff6347" />
  <rect
     x="379.39587"
     y="222.66353"
     width="57.009998"
     height="112.26"
     id="rect31"
     style="opacity:0.1;fill:#ff6347" />
  <polygon
     points="436.4,272.45 379.4,272.45 379.4,383.9 662.34,383.9 662.34,335.83 511.63,335.83 511.63,364.19 436.4,364.19 "
     id="polygon33"
     style="opacity:0.1;fill:#ff6347"
     transform="translate(-0.00411552,65.923529)" />
  <path
     d="m 378.49588,572.76352 h 0.9 v 73.11 q 15.33,-1.16 30.54,-3.14 a 547.41,547.41 0 0 0 132.29,-34.31 q 18.24,-7.32 35.73,-15.94 a 465.15,465.15 0 0 0 55.87,-32.47 q 6.69,-4.54 13.17,-9.29 c 3,-2.21 6,-4.46 9,-6.65 2.09,-1.5 4.2,-3 6.34,-4.41 v -86.4 h -225.18 c 0.16,-0.51 0.31,-1 0.47,-1.53 -0.17,0.51 -0.34,1 -0.49,1.53 h -57.74 v 119.45 z"
     id="path35"
     inkscape:connector-curvature="0"
     style="opacity:0.1;fill:#ff6347" />
  <path
     d="m 230.72588,214.30352 h 37.14 v -10.29 h -16.64 v -30.55 c -1.44,0.47 -2.88,1 -4.31,1.45 v 29.1 h -16.19 z"
     id="path37"
     inkscape:connector-curvature="0"
     style="opacity:0.1;fill:#ff6347" />
  <path
     d="m 141.22588,334.93352 h 182.36 -0.06 0.09 33.82 v -112.27 h -9.58 v 83 h -43.8 v -49.12 h -36.19 v -38.8 h -37.14 v 38.8 h -36.18 v 49.11 h -53.32 z"
     id="path39"
     inkscape:connector-curvature="0"
     style="opacity:0.1;fill:#ff6347" />
  <path
     d="m 141.22588,338.37352 v 111.45 h 216.21 v -111.45 z m 7.55,275.25 a 511.15,511.15 0 0 0 129.73,30.78 h 0.19 q 12.59,1.33 25.25,2.06 h 0.31 v 0 c 17.69,1 35.45,1.23 53.18,0.57 v -193.77 h -216.21 v 39.51 H 82.225882 l 0.31,88.21"
     id="path41"
     inkscape:connector-curvature="0"
     style="opacity:0.1;fill:#ff6347" />
  <path
     d="M 56.465882,453.26352 H 6.0358845 c 0.44,22.64 5.5499995,44.86 16.7299975,65.39 9.3,17.06 22.23,32 37.51,45 v -70.88 h -3.81 z"
     id="path43"
     inkscape:connector-curvature="0"
     style="opacity:0.1;fill:#ff6347" />
  <path
     d="M 5.9958845,449.82352 H 56.465882 v -93.14 h -27.31 c -14.129998,29.33 -23.1099975,61.57 -23.1599975,93.14 z"
     id="path45"
     inkscape:connector-curvature="0"
     style="opacity:0.1;fill:#ff6347" />
  <rect
     x="379.39587"
     y="253.87355"
     width="30.540001"
     height="35.200001"
     id="rect47"
     style="opacity:0.1;fill:#ff6347" />
  <rect
     x="379.39587"
     y="326.83353"
     width="30.540001"
     height="8.1000004"
     id="rect49"
     style="opacity:0.1;fill:#ff6347" />
  <rect
     x="379.39587"
     y="338.37354"
     width="30.540001"
     height="23.65"
     id="rect51"
     style="opacity:0.1;fill:#ff6347" />
  <rect
     x="379.39587"
     y="399.78351"
     width="30.540001"
     height="35.200001"
     id="rect53"
     style="opacity:0.1;fill:#ff6347" />
  <rect
     x="379.39587"
     y="472.74353"
     width="30.540001"
     height="35.200001"
     id="rect55"
     style="opacity:0.1;fill:#ff6347" />
  <path
     d="m 379.39588,572.71352 h -0.9 0.9 v 8.17 h 30.54 v -35.2 h -30.54 z"
     id="path57"
     inkscape:connector-curvature="0"
     style="opacity:0.1;fill:#ff6347" />
  <path
     d="m 379.39588,618.64352 v 27.19 q 15.33,-1.16 30.54,-3.14 v -24 z"
     id="path59"
     inkscape:connector-curvature="0"
     style="opacity:0.1;fill:#ff6347" />
  <rect
     x="531.45593"
     y="447.23352"
     width="130.88"
     height="2.5799999"
     id="rect61"
     style="opacity:0.1;fill:#ff6347" />
  <rect
     x="531.45593"
     y="453.26355"
     width="130.88"
     height="9.9099998"
     id="rect63"
     style="opacity:0.1;fill:#ff6347" />
  <rect
     x="531.45593"
     y="495.65356"
     width="130.88"
     height="15.94"
     id="rect65"
     style="opacity:0.1;fill:#ff6347" />
  <path
     d="m 531.45588,544.07352 v 15.94 h 102.38 q 6.67,-4.53 13.17,-9.3 c 3,-2.2 6,-4.45 9,-6.63 z"
     id="path67"
     inkscape:connector-curvature="0"
     style="opacity:0.1;fill:#ff6347" />
  <path
     d="m 531.45588,592.48352 v 15.94 h 10.77 q 18.23,-7.3 35.72,-15.94 z"
     id="path69"
     inkscape:connector-curvature="0"
     style="opacity:0.1;fill:#ff6347" />
  <rect
     x="-304.25586"
     y="-372.09351"
     width="25.76"
     height="22.91"
     transform="scale(-1)"
     id="rect71"
     style="opacity:0.1;fill:#ff6347" />
  <rect
     x="-862.11591"
     y="-265.33353"
     width="25.76"
     height="22.91"
     transform="scale(-1)"
     id="rect73"
     style="opacity:0.1;fill:#ff6347" />
  <rect
     x="-862.11591"
     y="-318.55353"
     width="25.76"
     height="22.91"
     transform="scale(-1)"
     id="rect75"
     style="opacity:0.1;fill:#ff6347" />
  <rect
     x="-862.11591"
     y="-371.76352"
     width="25.76"
     height="22.91"
     transform="scale(-1)"
     id="rect77"
     style="opacity:0.1;fill:#ff6347" />
  <rect
     x="-862.11591"
     y="-424.98352"
     width="25.76"
     height="22.91"
     transform="scale(-1)"
     id="rect79"
     style="opacity:0.1;fill:#ff6347" />
  <rect
     x="-862.11591"
     y="-478.2135"
     width="25.76"
     height="22.91"
     transform="scale(-1)"
     id="rect81"
     style="opacity:0.1;fill:#ff6347" />
  <rect
     x="-862.11591"
     y="-531.42352"
     width="25.76"
     height="22.91"
     transform="scale(-1)"
     id="rect83"
     style="opacity:0.1;fill:#ff6347" />
  <rect
     x="-205.89587"
     y="-372.09351"
     width="25.76"
     height="22.91"
     transform="scale(-1)"
     id="rect85"
     style="opacity:0.1;fill:#ff6347" />
  <rect
     x="-304.25586"
     y="-428.59354"
     width="25.76"
     height="22.91"
     transform="scale(-1)"
     id="rect87"
     style="opacity:0.1;fill:#ff6347" />
  <rect
     x="-205.89587"
     y="-428.59354"
     width="25.76"
     height="22.91"
     transform="scale(-1)"
     id="rect89"
     style="opacity:0.1;fill:#ff6347" />
  <rect
     x="-304.25586"
     y="-485.10352"
     width="25.76"
     height="22.91"
     transform="scale(-1)"
     id="rect91"
     style="opacity:0.1;fill:#ff6347" />
  <rect
     x="-205.89587"
     y="-485.10352"
     width="25.76"
     height="22.91"
     transform="scale(-1)"
     id="rect93"
     style="opacity:0.1;fill:#ff6347" />
  <rect
     x="-304.25586"
     y="-541.61353"
     width="25.76"
     height="22.91"
     transform="scale(-1)"
     id="rect95"
     style="opacity:0.1;fill:#ff6347" />
  <rect
     x="-205.89587"
     y="-541.61353"
     width="25.76"
     height="22.91"
     transform="scale(-1)"
     id="rect97"
     style="opacity:0.1;fill:#ff6347" />
  <rect
     x="-304.25586"
     y="-598.13348"
     width="25.76"
     height="22.91"
     transform="scale(-1)"
     id="rect99"
     style="opacity:0.1;fill:#ff6347" />
  <rect
     x="-205.89587"
     y="-598.13348"
     width="25.76"
     height="22.91"
     transform="scale(-1)"
     id="rect101"
     style="opacity:0.1;fill:#ff6347" />
  <polygon
     points="278.5,578.48 304.25,580.58 304.25,565.81 278.5,565.81 "
     id="polygon103"
     style="opacity:0.1;fill:#ff6347"
     transform="translate(-0.00411552,65.923529)" />
  <path
     d="m 902.64588,306.27352 v 13.11 h 88.16996 v -13.11 z m 79.38996,0.83 h 7.19 v 11.46 h -7.23 z m -8.78,0 h 7.23 v 11.46 h -7.26 z m -8.76,0 h 7.23 v 11.46 h -7.23 z m -8.78,0 h 7.23 v 11.46 h -7.23 z m -8.77,0 h 7.28 v 11.46 h -7.23 z m -8.78,0 h 7.23 v 11.46 h -7.23 z m -8.78,0 h 7.23 v 11.46 h -7.23 z m -8.77,0 h 7.23 v 11.46 h -7.23 z m -8.76996,0 h 7.22996 v 11.46 h -7.22996 z m -8.77,0 h 7.23 v 11.46 h -7.23 z"
     id="path105"
     inkscape:connector-curvature="0"
     style="opacity:0.1;fill:#ff6347" />
  <path
     d="m 902.64588,344.43352 v 13.11 h 88.16996 v -13.11 z m 79.38996,0.83 h 7.19 v 11.45 h -7.23 z m -8.78,0 h 7.23 v 11.45 h -7.26 z m -8.76,0 h 7.23 v 11.45 h -7.23 z m -8.78,0 h 7.23 v 11.45 h -7.23 z m -8.77,0 h 7.28 v 11.45 h -7.23 z m -8.78,0 h 7.23 v 11.45 h -7.23 z m -8.78,0 h 7.23 v 11.45 h -7.23 z m -8.77,0 h 7.23 v 11.45 h -7.23 z m -8.76996,0 h 7.22996 v 11.45 h -7.22996 z m -8.77,0 h 7.23 v 11.45 h -7.23 z"
     id="path107"
     inkscape:connector-curvature="0"
     style="opacity:0.1;fill:#ff6347" />
  <path
     d="m 902.64588,382.58352 v 13.1 h 88.16996 v -13.1 z m 79.38996,0.82 h 7.19 v 11.46 h -7.23 z m -8.78,0 h 7.23 v 11.46 h -7.26 z m -8.76,0 h 7.23 v 11.46 h -7.23 z m -8.78,0 h 7.23 v 11.46 h -7.23 z m -8.77,0 h 7.28 v 11.46 h -7.23 z m -8.78,0 h 7.23 v 11.46 h -7.23 z m -8.78,0 h 7.23 v 11.46 h -7.23 z m -8.77,0 h 7.23 v 11.46 h -7.23 z m -8.76996,0 h 7.22996 v 11.46 h -7.22996 z m -8.77,0 h 7.23 v 11.46 h -7.23 z"
     id="path109"
     inkscape:connector-curvature="0"
     style="opacity:0.1;fill:#ff6347" />
  <path
     d="m 902.64588,420.73352 v 13.1 h 88.16996 v -13.1 z m 79.38996,0.82 h 7.19 v 11.46 h -7.23 z m -8.78,0 h 7.23 v 11.46 h -7.26 z m -8.76,0 h 7.23 v 11.46 h -7.23 z m -8.78,0 h 7.23 v 11.46 h -7.23 z m -8.77,0 h 7.28 v 11.46 h -7.23 z m -8.78,0 h 7.23 v 11.46 h -7.23 z m -8.78,0 h 7.23 v 11.46 h -7.23 z m -8.77,0 h 7.23 v 11.46 h -7.23 z m -8.76996,0 h 7.22996 v 11.46 h -7.22996 z m -8.77,0 h 7.23 v 11.46 h -7.23 z"
     id="path111"
     inkscape:connector-curvature="0"
     style="opacity:0.1;fill:#ff6347" />
  <path
     d="m 902.64588,458.88352 v 13.13 h 82.89996 c 0.12,-0.27 0.24,-0.55 0.35,-0.82 h -3.86 v -11.48 h 7.19 v 2.85 c 0.42,-1.22 0.82,-2.44 1.17,-3.68 z m 70.60996,0.83 h 7.23 v 11.45 h -7.26 z m -8.76,0 h 7.23 v 11.45 h -7.23 z m -8.78,0 h 7.23 v 11.45 h -7.23 z m -8.77,0 h 7.28 v 11.45 h -7.23 z m -8.78,0 h 7.23 v 11.45 h -7.23 z m -8.78,0 h 7.23 v 11.45 h -7.23 z m -8.77,0 h 7.23 v 11.45 h -7.23 z m -8.76996,0 h 7.22996 v 11.45 h -7.22996 z m -8.77,0 h 7.23 v 11.45 h -7.23 z"
     id="path113"
     inkscape:connector-curvature="0"
     style="opacity:0.1;fill:#ff6347" />
  <path
     d="m 902.64588,497.01352 v 13.1 h 55.10996 c 0.32,-0.27 0.6,-0.56 0.89,-0.82 h -2.93 v -11.43 h 7.23 v 7.15 l 1.55,-1.65 v -5.5 h 4.79 c 0.23,-0.28 0.45,-0.56 0.68,-0.82 z m 44.29996,0.82 h 7.28 v 11.46 h -7.23 z m -8.78,0 h 7.23 v 11.46 h -7.23 z m -8.78,0 h 7.23 v 11.46 h -7.23 z m -8.77,0 h 7.23 v 11.46 h -7.23 z m -8.76996,0 h 7.22996 v 11.46 h -7.22996 z m -8.77,0 h 7.23 v 11.46 h -7.23 z"
     id="path115"
     inkscape:connector-curvature="0"
     style="opacity:0.1;fill:#ff6347" />
  <path
     d="m 902.64588,535.19352 v 7.93 a 3.12,3.12 0 0 0 0.43,-0.15 v -7 h 7.23 v 4.26 l 1.54,-0.63 v -3.59 h 7.22996 v 0.4 c 0.85,-0.39 1.69,-0.8 2.52,-1.21 z"
     id="path117"
     inkscape:connector-curvature="0"
     style="opacity:0.1;fill:#ff6347" />
  <path
     d="m 323.55588,334.95352 h 0.05 v 0 z m 54.94,237.81 h 0.9 v 0 z m 58.64,-119.5 v 0 c 0.16,-0.51 0.31,-1 0.48,-1.54 -0.17,0.52 -0.33,1.03 -0.48,1.54 z m -113.58,-118.31 h 0.05 v 0 z m 506.81,-120.65 v 3.44 h 40.47 v -3.44 z m -451.87,358.46 h 0.9 v 0 z m 58.64,-119.5 v 0 c 0.16,-0.51 0.31,-1 0.48,-1.54 -0.17,0.52 -0.33,1.03 -0.48,1.54 z m -113.58,-118.31 h 0.05 v 0 z m 54.94,237.81 h 0.9 v 0 z m 58.64,-119.5 v 0 c 0.16,-0.51 0.31,-1 0.48,-1.54 -0.17,0.52 -0.33,1.03 -0.48,1.54 z"
     id="path119"
     inkscape:connector-curvature="0"
     style="opacity:0.1;fill:#ff6347" />
  <ellipse
     cx="902.94592"
     cy="886.51355"
     rx="34.580002"
     ry="3.8299999"
     id="ellipse121"
     style="opacity:0.1;fill:#ff6347" />
  <polygon
     points="649.6,472.85 667.83,469.49 667.95,484.73 668.32,535.25 651.04,534.3 649.87,484.67 "
     id="polygon123"
     style="fill:#d48a9b"
     transform="translate(-0.00411552,65.923529)" />
  <polygon
     points="760.48,645.66 692.8,561.18 737.92,592.38 738.88,605.82 748,606.3 747.04,589.98 661.11,523.73 654.87,526.61 566.07,581.82 564.15,598.62 573.75,599.1 573.75,587.1 631.83,554.46 561.75,641.34 561.75,654.78 573.27,654.78 572.31,639.9 653.43,547.74 663.51,548.7 748.96,645.66 750.88,661.99 762.4,662.47 "
     id="polygon125"
     style="fill:#d48a9b"
     transform="translate(-0.00411552,65.923529)" />
  <path
     d="m 543.30588,498.10352 a 158.41,158.41 0 0 0 20.92,-34.09 c 6.11,-13.52 12.81,-29.13 13.32,-33.75 1,-8.64 25.44,-25.92 52.32,-26.88 17.53,-0.63 44.84,-14.31 61.74,-23.76 a 125.67,125.67 0 0 1 51.8,-16 c 19.77,-1.49 38.36,2.39 29,25.33 l -125.7,152.22 c 0,0 -107.2,18.89 -113.81,-11.48 a 25.26,25.26 0 0 0 -1.53,-4.46 c -1.25,-2.87 -1.58,-10.36 11.94,-27.13 z"
     id="path127"
     inkscape:connector-curvature="0"
     style="fill:#ff6347" />
  <path
     d="m 552.74588,501.12352 a 163.07,163.07 0 0 0 21.13,-34.4 c 5.7,-12.64 11.75,-26.81 12.23,-31.1 0.92,-8.25 24.34,-24.76 50.06,-25.68 16.77,-0.6 42.9,-13.66 59.06,-22.69 a 120.41,120.41 0 0 1 49.58,-15.24 c 18.91,-1.42 36.7,2.29 27.78,24.2 l -99.71,146 c 0,0 -123,17.45 -129.51,-11.42 a 28.87,28.87 0 0 0 -1.53,-4.48 c -1.14,-2.86 -1.3,-9.87 10.91,-25.19 z"
     id="path129"
     inkscape:connector-curvature="0"
     style="opacity:0.2;fill:#dda2a6" />
  <path
     d="m 667.94588,550.65352 c -5.78,0 -11.87,0 -18.08,-0.06 l -0.27,-11.82 18.23,-3.35 z"
     id="path131"
     inkscape:connector-curvature="0"
     style="opacity:0.1" />
  <g
     id="g143"
     style="opacity:0.1"
     transform="translate(-0.00411552,65.923529)">
    <polygon
       points="738.88,602.94 737.92,589.5 692.8,558.3 697.97,564.75 737.92,592.38 738.88,605.82 748,606.3 747.83,603.41 "
       id="polygon133" />
    <polygon
       points="631.83,551.58 573.75,584.22 573.75,587.1 627.58,556.85 "
       id="polygon135" />
    <polygon
       points="573.08,651.9 561.75,651.9 561.75,654.78 573.27,654.78 "
       id="polygon137" />
    <polygon
       points="573.75,599.1 573.75,596.22 564.47,595.76 564.15,598.62 "
       id="polygon139" />
    <polygon
       points="653.43,544.86 572.31,637.02 572.48,639.71 653.43,547.74 663.51,548.7 748.96,645.66 750.88,661.99 762.4,662.47 762.07,659.57 750.88,659.11 748.96,642.78 663.51,545.82 "
       id="polygon141" />
  </g>
  <path
     d="m 657.74588,456.07352 c 0,0 22.48,16.44 12.64,16.63 -9.84,0.19 -12.64,-16.63 -12.64,-16.63 z"
     id="path145"
     inkscape:connector-curvature="0"
     style="opacity:0.1" />
  <path
     d="m 563.42588,546.01352 c 0,0 37.2,-2.88 51.12,-29.76 0,0 28.32,-56.17 51.37,-62.41 23.05,-6.24 65.76,-20.16 83.52,-41.76 17.76,-21.6 25.21,-38.16 25.21,-38.16 0,0 4.58,17.48 -9.85,38.09 -14.43,20.61 -19.68,52.35 -29.76,86 -10.08,33.65 -13.92,47 -32.16,49 -13.75,1.45 -86.45,0.72 -121.21,0 -11.37,-0.31 -18.24,-1 -18.24,-1 z"
     id="path147"
     inkscape:connector-curvature="0"
     style="fill:#ff6347" />
  <path
     d="m 563.42588,546.01352 c 0,0 37.2,-2.88 51.12,-29.76 0,0 28.32,-56.17 51.37,-62.41 23.05,-6.24 65.76,-20.16 83.52,-41.76 17.76,-21.6 25.21,-38.16 25.21,-38.16 0,0 4.58,17.48 -9.85,38.09 -14.43,20.61 -19.68,52.35 -29.76,86 -10.08,33.65 -13.92,47 -32.16,49 -13.75,1.45 -86.45,0.72 -121.21,0 -11.37,-0.31 -18.24,-1 -18.24,-1 z"
     id="path149"
     inkscape:connector-curvature="0"
     style="opacity:0.2;fill:#dda2a6" />
  <path
     d="m 572.78588,546.01352 c 0,0 35.56,-2.79 48.86,-28.82 0,0 27.08,-54.38 49.1,-60.42 22.02,-6.04 62.86,-19.53 79.84,-40.44 16.98,-20.91 24.09,-36.95 24.09,-36.95 0,0 4.35,17 -9.41,36.95 -13.76,19.95 -18.81,50.66 -28.45,83.2 -9.64,32.54 -13.3,45.55 -30.74,47.41 -13.14,1.4 -82.63,0.69 -115.86,0 -10.86,-0.21 -17.43,-0.93 -17.43,-0.93 z"
     id="path151"
     inkscape:connector-curvature="0"
     style="fill:#ff6347" />
  <path
     d="m 543.98588,532.01352 c 0,0 19.44,7.44 30.48,3.36 11.04,-4.08 38.4,-16.08 38.4,-16.08 0,0 -46.08,2.92 -68.88,12.72 z"
     id="path153"
     inkscape:connector-curvature="0"
     style="opacity:0.1" />
  <path
     d="m 673.96588,881.36352 c 0,0 -55.88,-3 -69.5,-11 -13.62,-8 -32.9,-8 -33,-8 l -222.5,-48.5 -92.5,-22 -16.5,-2.17 54.5,-62.36 1.66,-0.72 80.34,-34.75 c 0,0 36,2 43.11,25.46 a 28.33,28.33 0 0 1 1,5.06 29.36,29.36 0 0 1 -5.68,20.54 c -2.84,3.88 -6.33,9.39 -7.43,14.24 -0.62,2.74 -0.48,5.27 1,7.2 a 58.69,58.69 0 0 0 9.88,7.89 c 19.59,13 69.11,34.42 155.62,1.61 0,0 37,-36.5 65,-21 28,15.5 35,128.5 35,128.5 z"
     id="path155"
     inkscape:connector-curvature="0"
     style="fill:#e1dee5" />
  <path
     d="m 407.50588,757.16352 c -0.62,2.74 -0.48,5.27 1,7.2 a 58.69,58.69 0 0 0 9.88,7.89 l -168.42,12.61 46.16,-58.25 80.34,-34.75 c 0,0 36,2 43.11,25.46 a 28.33,28.33 0 0 1 1,5.06 29.36,29.36 0 0 1 -5.68,20.54 c -2.8,3.88 -6.29,9.39 -7.39,14.24 z"
     id="path157"
     inkscape:connector-curvature="0"
     style="opacity:0.1" />
  <polygon
     points="380.97,464.94 380.97,630.13 249.97,718.94 218.47,689.94 224.97,593.94 218.47,504.44 242.97,461.94 "
     id="polygon159"
     style="fill:#a36468"
     transform="translate(-0.00411552,65.923529)" />
  <path
     d="m 164.46588,500.86352 161.12,-49.65 a 24.41,24.41 0 0 1 8.95,-1 l 384.9,28.09 a 181.82,181.82 0 0 1 91.66,32.33 c 24.91,17.57 49.58,44.54 61,85.38 a 163.05,163.05 0 0 1 -1.65,91.83 l -34,110 c 0,0 25.5,-239 -229,-251 z"
     id="path161"
     inkscape:connector-curvature="0"
     style="fill:#d9d6df" />
  <path
     d="m 249.96588,524.36352 v 265.33 c 0,0 -44.15,-6.21 -52,-14.83 -6.44,-7.07 -43.75,-27 -59.94,-47.53 -3.55,-4.5 -6.09,-9 -7.06,-13.47 -5.42,-24.68 -27.5,-83 -27.5,-83 l 6,-57 25,-37 48.5,-22 h 37.5 z"
     id="path163"
     inkscape:connector-curvature="0"
     style="fill:#b8797d" />
  <path
     d="m 179.96588,527.86352 c 0,0 -71.76,45 -56.06,117.41 1.28,5.9 2.39,11.83 3.12,17.83 2.87,23.42 20.09,90.72 122.94,121.76 v 7 l -43.63,-12.17 -29.62,-16.33 -22.61,-20.28 -27.64,-33.72 -12.83,-27.5 -4.7,-36.22 -2.71,-41.35 6.61,-35.47 15.59,-23.08 19,-14.77 z"
     id="path165"
     inkscape:connector-curvature="0"
     style="fill:#d9d6df" />
  <path
     d="m 249.96588,524.36352 v 42.21 c -31.3,3.4 -128.21,23 -111,135 l -0.95,25.72 c -3.55,-4.5 -6.09,-9 -7.06,-13.47 -5.42,-24.68 -27.5,-83 -27.5,-83 l 6,-57 25,-37 48.5,-22 h 37.5 z"
     id="path167"
     inkscape:connector-curvature="0"
     style="opacity:0.1" />
  <path
     d="m 414.93588,742.92352 c -2.84,3.88 -6.33,9.39 -7.43,14.24 -4.36,-5 -5.3,-10.75 1,-15.3 7.89,-5.74 10.52,-15.7 11.11,-24.54 a 28.33,28.33 0 0 1 1,5.06 29.36,29.36 0 0 1 -5.68,20.54 z"
     id="path169"
     inkscape:connector-curvature="0"
     style="opacity:0.1;fill:#ffffff" />
  <path
     d="m 818.96588,769.86352 -19,64.5 -43,42 -54,11 -84,-15 v -298.5 c 0,0 14.5,-9.5 16,-9.5 1.5,0 42,6.5 42,6.5 l 91.7,65.77 3.8,2.73 41,61 z"
     id="path171"
     inkscape:connector-curvature="0"
     style="fill:#b8797d" />
  <polygon
     points="627.07,495.44 618.97,495.44 618.97,806.44 627.07,807.89 "
     id="polygon173"
     style="fill:#a36468"
     transform="translate(-0.00411552,65.923529)" />
  <path
     d="m 770.46588,657.36352 c -60,-49.3 -126.7,-56.55 -151.5,-57.45 v -26 c 0,0 14.5,-9.5 16,-9.5 1.5,0 42,6.5 42,6.5 l 91.7,65.77 z"
     id="path175"
     inkscape:connector-curvature="0"
     style="opacity:0.1" />
  <path
     d="m 606.29588,541.36352 -375.83,-41 -42.24,-2.24 a 86.81,86.81 0 0 0 -70.21,29.35 c -21.999998,25.3 -38.629998,69.93 -14.34,146.56 0,0 25.33,99.33 148,120.67 l 356.44,80.77 c 7.9,1.79 15.7,4 23.4,6.51 32.36,10.63 142,38.17 193.65,-55.45 17.7,-32.1 23,-69.53 16.18,-105.56 -12.43,-65.9 -59.36,-177.73 -235.05,-179.61 z m 184.13,280.89 c -48.2,78.52 -147.52,55.15 -177.38,45.93 -7.31,-2.26 -14.71,-4.23 -22.2,-5.83 l -329.26,-70.44 c -113.44,-18.63 -136.87,-105.36 -136.87,-105.36 -19.15,-57 -10.78,-93.78 4.7,-117.06 16.21,-24.37 44.43,-38 73.67,-36.52 l 38.92,2 336.16,44.91 c 6.8,0.91 13.65,1.51 20.51,1.74 149.49,5.07 196,87.27 207.82,143.92 6.94,33.11 1.66,67.85 -16.07,96.71 z"
     id="path177"
     inkscape:connector-curvature="0"
     style="fill:#e1dee5" />
  <path
     d="m 4.2258845,708.47352 c 12.3099995,8.24 30.9999975,4.32 30.9999975,4.32 0,0 28.19,-13.35 36.52,-13.35 8.33,0 28.589998,-8.25 28.589998,-8.25 l -0.689998,-5.56 -2.06,-16.75 c 12.829998,10 27.089998,6.55 34.109998,5.82 7.54,-0.78 47.83,-24.73 51.71,-26.31 1.05,-0.42 2.28,-1.79 3.53,-3.56 v 0 a 90.77,90.77 0 0 0 6.82,-12.46 v 0 c 2.52,-2.22 4.36,-4 4.23,-4.39 -0.13,-0.39 1,-3.31 2.47,-6.6 5.72,-1 10.65,-3.12 12.22,-4.4 a 10.67,10.67 0 0 0 4,-8.64 c 0,0 39.31,-39.65 34.14,-56.14 -5.17,-16.49 12.71,-16.89 12.71,-16.89 0,0 27.39,-11.78 31.2,-18.84 2.35,-4.35 22.9,-13.9 38.36,-20.6 l 1.9,-0.82 c 6,13.15 36.48,3 42.48,-2.53 6.35,-5.89 25,-8.64 25,-8.64 0,0 0.8,-77 6.75,-86.78 2.83,-4.65 3.51,-19.85 3.44,-34.53 0,-0.52 0,-1 0,-1.56 8.34,-1.63 28.18,-5.4 37.39,-6.31 5.84,-0.58 11.93,-4.22 16.6,-7.76 l 0.55,0.69 a 11.4,11.4 0 0 0 5.07,0.83 7.76,7.76 0 0 0 4.45,-0.83 c 3.58,-2 16.68,-5.89 21.44,-7.85 4.76,-1.96 -0.79,-16.1 -4.36,-18.85 -3.57,-2.75 -6,-6.28 -4,-7.85 2,-1.57 -4.76,-5.5 -8.73,-6.29 -3.97,-0.79 -15.88,-6.28 -15.88,-6.28 0,0 -4.37,-9 -11.51,-9 -7.14,0 -16.68,-7.07 -16.68,-7.07 -0.39,-3.14 -7.94,-3.53 -7.94,-3.53 0,0 -28.58,-22 -33.35,-19.24 -4.77,2.76 -17.86,-4.32 -17.86,-4.32 0,0 -16.07,1.8 -19.85,-1.16 v 0 a 4.46,4.46 0 0 0 -1,-2.66 c -0.85,-2.66 -5,-6.3 -9,-9.33 a 35.4,35.4 0 0 0 0.46,-5.68 c 0,-0.82 0,-1.64 -0.09,-2.45 0,-0.14 0,-0.27 0,-0.41 l 0.57,-5.53 a 11.42,11.42 0 0 1 1.38,-5.2 c 0.67,-1 1.66,-1.85 2.41,-2.84 a 7.06,7.06 0 0 0 0.48,-0.73 l 0.12,-0.21 a 6.54,6.54 0 0 0 0.3,-0.59 l 0.09,-0.2 a 9.6,9.6 0 0 0 0.51,-1.68 v -0.13 c 0.05,-0.26 0.09,-0.52 0.12,-0.79 a 0.45,0.45 0 0 1 0,-0.11 16.75,16.75 0 0 0 -0.9,-6.74 c -1.19,-3.71 -3.05,-7.29 -3.25,-11.16 -0.1,-1.92 0.22,-3.88 -0.2,-5.76 -1,-4.29 -5.37,-7 -9.62,-8.8 -5.87,-2.46 -8.83,-5.15 -13.54,-8.81 -4,-3.1 -10.62,-1.54 -15.66,-1.22 -11.52,0.74 -22.89,4.21 -33.73,7.79 -4.21,1.4 -8.5,3 -11.78,5.85 a 13,13 0 0 0 -4.31,7.28 v 0 a 9.52,9.52 0 0 0 -0.13,2 c 0,0.06 0,0.12 0,0.17 0,0.26 0,0.51 0.09,0.76 a 1.87,1.87 0 0 0 0,0.25 5.9,5.9 0 0 0 0.22,0.9 v 0 c 0.46,1.45 1.31,2.76 1.8,4.2 a 8.21,8.21 0 0 1 0.27,1 c 0,0 0,0.07 0,0.1 0.07,0.32 0.12,0.63 0.16,1 v 0 c 0.44,3.57 -0.88,7.3 -1.46,10.94 -0.08,0.51 -0.14,1 -0.18,1.56 v 0 0 a 18.64,18.64 0 0 0 0.55,6.27 0.19,0.19 0 0 0 0,0.07 c 0.06,0.25 0.15,0.5 0.23,0.74 a 3,3 0 0 0 0.1,0.32 c 0.07,0.21 0.16,0.42 0.24,0.62 l 0.17,0.42 c 0.08,0.18 0.17,0.36 0.26,0.54 0.09,0.18 0.15,0.3 0.23,0.44 a 5.46,5.46 0 0 0 0.27,0.48 c 0.09,0.16 0.19,0.31 0.29,0.46 0.1,0.15 0.19,0.29 0.3,0.43 0.11,0.14 0.23,0.31 0.35,0.46 l 0.31,0.38 0.42,0.44 0.33,0.33 0.49,0.42 c 0.12,0.09 0.22,0.19 0.34,0.27 0.12,0.08 0.41,0.29 0.62,0.42 l 0.29,0.2 c 0.32,0.19 0.66,0.36 1,0.52 2.28,1 5.16,1.41 6.53,3.42 a 4.22,4.22 0 0 1 0.67,1.56 c 0,0.13 0,0.27 0,0.4 v 0.35 c 0,1.16 0.08,2.31 0.2,3.44 a 12.73,12.73 0 0 0 0.11,1.86 5.33,5.33 0 0 0 0.38,1.35 35.68,35.68 0 0 0 12,20.22 c 0.12,0.61 0.26,1.32 0.41,2.12 a 39.71,39.71 0 0 1 -11.55,6 c -9.53,2.79 -23,15.66 -23,15.66 0,0 -6.7,48.29 -8.31,54.18 -1.61,5.89 -2.8,28.67 -2.8,28.67 0,0 -1.59,9.42 -4,14.13 -1.69,3.32 -1.38,17.59 3.32,26.26 a 21.9,21.9 0 0 1 -2.92,4.76 c -9.53,11 -38.12,10.6 -47.65,10.6 -8.77,0 -11.48,5.32 -11.85,6.16 -17.45,5 -73.95,21.08 -80.649998,24 -7.94,3.47 -12.31,37.76 -12.31,37.76 0,0 -16.59,56.92 -15.8,64.38 0.79,7.46 -5.56,28.24 -5.56,28.24 0,0 0,23.49 -2.69,25.08 a 0.25,0.25 0 0 1 -0.08,0.05 c -2.78,1.18 -2.39,12.57 -2.39,12.57 0,0 2.05,0.59 5.24,1.4 -0.85,5.75 -4,13.8 -6.43,19.52 -1.24,-1.57 -2.45,-2.22 -3.17,-0.4 -2,5 -31.76,40.34 -39.309998,40.34 -3.59,0 -9.5299995,2.94 -13.4399995,6.91 -4.28000002,4.37 -6.1,9.98 0.36,14.29 z m 136.5499955,-204.57 c 33.75,3.14 69.88,-2.39 69.88,-2.39 0,0 -2.78,9.85 -5.16,13.78 -2.38,3.93 -9.14,26.31 -9.14,31 0,4.69 -10.72,45.15 -13.89,47.11 -1.33,0.83 -2.52,2.89 -3.46,5 a 46.94,46.94 0 0 0 -2.1,6 q 0.07,1.53 0.27,2.91 c -2.37,2.17 -4.88,4.45 -7.11,6.47 v 0 c 0,0 -14.2,7.9 -19,12.22 -4.8,4.32 -27,9.62 -27,9.62 a 138.21,138.21 0 0 0 -16,8.15 c -6.89,4.15 -13.779998,9.43 -15.579998,14.64 0.78,-8.78 2.05,-19.35 2.9,-26.07 l 1.26,-0.05 c 11.129998,-0.69 9.469998,-11.31 8.879998,-13.94 -0.08,-0.38 -0.14,-0.59 -0.14,-0.59 7.94,-8.64 25.8,-73 23.42,-80.1 -2.38,-7.1 2,-13.35 2.93,-13.35 0.93,0 2.23,-7.85 0.25,-12.17 -1.98,-4.32 8.79,-8.24 8.79,-8.24 z m 272.9,-173.22 -2.11,0.52 v -0.45 c 0,0 0.77,0 2.11,-0.07 z m -115.36,-59.25 c -0.32,0.4 -0.64,0.78 -1,1.15 l -0.41,0.42 c 0,-0.73 0,-1.47 0,-2.18 0.48,0.19 0.94,0.42 1.41,0.61 z m -39.77,76.18 0.14,2.21 c 0,0 -0.21,1.35 -0.61,3.66 z m 182.45,-21.94 -6.93,1.19 c 1,-0.37 1.95,-0.77 2.89,-1.22 a 6.65,6.65 0 0 1 2.21,-0.6 12.69,12.69 0 0 1 2.58,0.55 4.78,4.78 0 0 0 -0.75,0.08 z"
     id="path179"
     inkscape:connector-curvature="0"
     style="fill:url(#e507827f-2863-48fa-82fe-b741cb149057)" />
  <path
     d="m 206.70588,609.15352 c 0,0 -8,16.51 -7.59,17.68 0.41,1.17 -17.15,15.18 -17.15,15.18 l -19.09,-13.63 2,-9.36 c 0,0 21.43,-19.31 23,-21.54 1.57,-2.23 18.83,11.67 18.83,11.67 z"
     id="path181"
     inkscape:connector-curvature="0"
     style="fill:#efb7b9" />
  <path
     d="m 97.805882,665.01352 c 13.249998,12.86 28.829998,9 36.239998,8.19 7.41,-0.81 46.94,-24.55 50.74,-26.11 1,-0.42 2.25,-1.78 3.47,-3.54 v 0 a 89.92,89.92 0 0 0 6.69,-12.37 c -0.26,0.07 -13.22,3.78 -16.49,0 0,0 -5.46,-6.69 -6.63,-6.69 -1.17,0 -0.09,-11.74 -0.09,-11.74 0,0 -13.94,7.84 -18.61,12.13 -4.67,4.29 -26.5,9.54 -26.5,9.54 a 134,134 0 0 0 -15.68,8.09 c -10.32,6.3 -20.719998,15.19 -13.139998,22.5 z"
     id="path183"
     inkscape:connector-curvature="0"
     style="fill:#67647e" />
  <path
     d="m 97.805882,665.01352 c 13.249998,12.86 28.829998,9 36.239998,8.19 7.41,-0.81 46.94,-24.55 50.74,-26.11 1,-0.42 2.25,-1.78 3.47,-3.54 -4.61,-2.75 -34.73,16.4 -43.16,19.91 -8.43,3.51 -29.76,1.55 -41.87,-3.51 -5.999998,-2.53 0.08,-10.3 7.7,-17.44 -10.3,6.3 -20.699998,15.19 -13.119998,22.5 z"
     id="path185"
     inkscape:connector-curvature="0"
     style="opacity:0.1" />
  <path
     d="m 99.365882,624.49352 c 0,0 -5.55,41.69 -4.14,47.15 1.41,5.46 -34.83,-18.7 -34.83,-18.7 0,0 12.68,-26.13 9,-32.13 -3.68,-6 29.97,3.68 29.97,3.68 z"
     id="path187"
     inkscape:connector-curvature="0"
     style="fill:#efb7b9" />
  <path
     d="m 64.685882,625.27352 c 0,0 22.6,6.62 35.06,5.84 10.919998,-0.68 9.289998,-11.22 8.719998,-13.83 -0.08,-0.37 -0.14,-0.58 -0.14,-0.58 7.79,-8.58 25.33,-72.48 23,-79.49 -2.33,-7.01 1.9,-13.2 2.9,-13.2 1,0 2.19,-7.8 0.24,-12.08 -1.95,-4.28 8.58,-8.18 8.58,-8.18 33.12,3.11 68.58,-2.38 68.58,-2.38 0,0 -2.73,9.78 -5.07,13.68 -2.34,3.9 -9,26.1 -9,30.78 0,4.68 -10.52,44.81 -13.64,46.76 -1.3,0.82 -2.47,2.86 -3.39,5 a 46.75,46.75 0 0 0 -2.06,6 c 1.17,26.11 30.78,16 35.07,12.47 a 11.5,11.5 0 0 0 1.66,-1.7 10.9,10.9 0 0 0 2.23,-6.88 c 0,0 38.58,-39.35 33.51,-55.72 -5.07,-16.37 12.47,-16.75 12.47,-16.75 0,0 26.89,-11.69 30.63,-18.71 2.31,-4.31 22.47,-13.78 37.65,-20.44 9.51,-4.17 17.06,-7.22 17.06,-7.22 l -6.32,-22.66 -5,-17.87 -9.38,-3.52 -30,-11.28 -53.82,-7.55 -4.93,0.64 -52.29,6.77 c 0,0 -76.34,21.84 -84.14,25.26 -7.799998,3.42 -12.079998,37.47 -12.079998,37.47 0,0 -16.36,56.5 -15.56,63.94 0.8,7.44 -5.46,28 -5.46,28 0,0 0,23.31 -2.65,24.89 a 0.14,0.14 0 0 1 -0.08,0 c -2.74,1.28 -2.35,12.54 -2.35,12.54 z"
     id="path189"
     inkscape:connector-curvature="0"
     style="fill:#444053" />
  <path
     d="m 143.00588,503.70352 c 33.12,3.11 68.58,-2.38 68.58,-2.38 2.34,-7.37 35.09,-27.63 35.09,-27.63 -26.87,-6.62 -103.67,30.01 -103.67,30.01 z"
     id="path191"
     inkscape:connector-curvature="0"
     style="opacity:0.1" />
  <path
     d="m 178.46588,603.45352 c 1.17,26.11 30.78,16 35.07,12.47 a 11.5,11.5 0 0 0 1.66,-1.7 c -10.35,3.81 -28.7,6.76 -34.67,-16.73 a 46.75,46.75 0 0 0 -2.06,5.96 z"
     id="path193"
     inkscape:connector-curvature="0"
     style="fill:#444053" />
  <path
     d="m 64.685882,625.27352 c 0,0 22.6,6.62 35.06,5.84 10.919998,-0.68 9.289998,-11.22 8.719998,-13.83 -11.439998,-0.36 -31.139998,-1.43 -41.369998,-4.53 a 0.14,0.14 0 0 1 -0.08,0 c -2.72,1.26 -2.33,12.52 -2.33,12.52 z"
     id="path195"
     inkscape:connector-curvature="0"
     style="fill:#444053" />
  <path
     d="m 178.46588,603.45352 c 1.17,26.11 30.78,16 35.07,12.47 a 11.5,11.5 0 0 0 1.66,-1.7 c -10.35,3.81 -28.7,6.76 -34.67,-16.73 a 46.75,46.75 0 0 0 -2.06,5.96 z"
     id="path197"
     inkscape:connector-curvature="0"
     style="opacity:0.1" />
  <path
     d="m 64.685882,625.27352 c 0,0 22.6,6.62 35.06,5.84 10.919998,-0.68 9.289998,-11.22 8.719998,-13.83 -11.439998,-0.36 -31.139998,-1.43 -41.369998,-4.53 a 0.14,0.14 0 0 1 -0.08,0 c -2.72,1.26 -2.33,12.52 -2.33,12.52 z"
     id="path199"
     inkscape:connector-curvature="0"
     style="opacity:0.1" />
  <path
     d="m 8.9558845,706.71352 c 12.0799975,8.18 30.3999975,4.28 30.3999975,4.28 0,0 27.66,-13.24 35.85,-13.24 8.19,0 28.019998,-8.19 28.019998,-8.19 l -0.67,-5.51 -3.219998,-26.44 c 0,0 -30.35,-0.78 -31.57,-3.51 0,0 -5.45,-13.42 -7.4,-8.46 -1.95,4.96 -31.17,40 -38.58,40 -3.53,0 -9.359998,2.92 -13.1899975,6.86 -4.17,4.37 -5.96,9.93 0.36,14.21 z"
     id="path201"
     inkscape:connector-curvature="0"
     style="fill:#67647e" />
  <path
     d="m 113.77588,476.42352 c 0,0 25.33,16 18.32,19.48 -7.01,3.48 -18.32,-19.48 -18.32,-19.48 z"
     id="path203"
     inkscape:connector-curvature="0"
     style="opacity:0.1" />
  <path
     d="m 103.22588,507.20352 c 0,0 21.82,20.72 13.64,21.27 -8.18,0.55 -13.64,-21.27 -13.64,-21.27 z"
     id="path205"
     inkscape:connector-curvature="0"
     style="opacity:0.1" />
  <path
     d="m 79.875882,573.01352 c 0,0 11.08,20.83 6.91,24.44 -4.17,3.61 -6.91,-24.44 -6.91,-24.44 z"
     id="path207"
     inkscape:connector-curvature="0"
     style="opacity:0.1" />
  <path
     d="m 201.84588,594.10352 c -3.9,3.89 37,-12.86 27.66,-13.64 -9.34,-0.78 -27.66,13.64 -27.66,13.64 z"
     id="path209"
     inkscape:connector-curvature="0"
     style="opacity:0.1" />
  <path
     d="m 283.66588,301.85352 1.31,-0.19 c 4.84,-0.74 22.41,-3.5 38.17,-6.92 3.84,-0.84 7.56,-1.71 11,-2.61 12.07,-3.16 20.17,-6.57 15,-9.37 -6.84,-3.71 -10.44,-10.45 -12.34,-16.25 -0.18,-0.57 -0.35,-1.12 -0.51,-1.67 a 43.31,43.31 0 0 1 -1.57,-9 c 0,0 -44,-15.59 -35.46,0 4.21,7.65 1.38,13.89 -2.59,18.26 a 34.28,34.28 0 0 1 -9.49,7.07 z"
     id="path211"
     inkscape:connector-curvature="0"
     style="fill:#efb7b9" />
  <path
     d="m 330.81588,289.77352 c 0,0 -15.75,11.3 -31.84,1.95 -16.09,-9.35 -37.13,82.61 -37.13,82.61 l -21.82,53.77 c 0,0 -14.13,11.69 3.46,16.76 17.59,5.07 56.61,-5.07 66.52,9.74 9.91,14.81 28.67,17.14 30.59,17.14 1.92,0 9.34,-55.73 9.34,-55.73 l 1.93,-80.66 z"
     id="path213"
     inkscape:connector-curvature="0"
     style="opacity:0.1" />
  <path
     d="m 244.22588,441.74352 c 17.59,5.06 56.62,-5.07 66.53,9.74 a 38.06,38.06 0 0 0 16.79,13.53 44,44 0 0 0 13.83,3.66 c 0.25,0 0.62,-1 1.05,-2.79 2.74,-11.28 8.29,-52.94 8.29,-52.94 l 1.92,-80.66 -18.51,-40.15 -2.53,-5.48 a 33.39,33.39 0 0 1 -8,3.91 c -6.09,2.06 -14.9,3.22 -23.82,-2 -4.72,-2.74 -9.87,3.24 -14.78,13.06 -11.84,23.64 -22.35,69.55 -22.35,69.55 l -21.84,53.84 a 18.52,18.52 0 0 0 -1.48,1.42 c -3.1,3.24 -8.91,11.33 4.9,15.31 z"
     id="path215"
     inkscape:connector-curvature="0"
     style="fill:#f3f5f9" />
  <path
     d="m 328.06588,444.45352 a 102.22,102.22 0 0 0 -0.52,20.52 240.33,240.33 0 0 0 3.66,29 11.43,11.43 0 0 0 0.48,1.77 c 9.51,-4.17 17.06,-7.22 17.06,-7.22 l -6.32,-22.66 c 2.74,-11.28 8.29,-52.94 8.29,-52.94 l 1.92,-80.66 -18.51,-40.13 c 12.07,-3.16 20.17,-6.57 15,-9.37 -7.5,-4.07 -11.11,-11.79 -12.85,-17.92 a 65.05,65.05 0 0 1 -11.05,11.92 l -0.24,0.2 -1.4,13.6 -0.43,4.18 -0.9,8.67 c 0,0 4.29,102.48 7.4,108.33 3.11,5.85 1.56,17.14 -1.16,30.39 -0.17,0.75 -0.27,1.52 -0.43,2.32 z"
     id="path217"
     inkscape:connector-curvature="0"
     style="opacity:0.1" />
  <path
     d="m 330.03588,440.57352 c -2.72,13.25 -0.39,35.07 2.73,51.82 3.12,16.75 36.24,5.85 42.48,0 6.24,-5.85 24.54,-8.57 24.54,-8.57 0,0 0.78,-76.37 6.63,-86.11 2.77,-4.62 3.44,-19.7 3.37,-34.27 -0.05,-13.08 -0.7,-25.75 -0.94,-30 -0.06,-1 -0.09,-1.55 -0.09,-1.55 0,0 25.32,-42.86 24.93,-46 -0.39,-3.14 -7.79,-3.5 -7.79,-3.5 0,0 -28,-21.82 -32.73,-19.1 -4.73,2.72 -17.54,-4.28 -17.54,-4.28 0,0 -16.29,1.85 -19.66,-1.3 a 1.72,1.72 0 0 1 -0.6,-1.43 c 0.38,-5 -16.6,-15.64 -17.13,-16 14.32,12.88 -8.83,32.73 -11.46,34.91 l -0.24,0.2 -2.73,26.45 c 0,0 4.29,102.48 7.4,108.33 3.11,5.85 1.56,17.15 -1.17,30.4 z"
     id="path219"
     inkscape:connector-curvature="0"
     style="fill:#67647e" />
  <circle
     cx="331.54587"
     cy="329.25351"
     r="1.95"
     id="circle221"
     style="fill:#444053" />
  <path
     d="m 327.55588,276.76352 11.84,11.45 17.35,-29 a 1.72,1.72 0 0 1 -0.6,-1.43 c 0.38,-5 -16.61,-15.64 -17.13,-16 14.32,12.95 -8.79,32.8 -11.46,34.98 z"
     id="path223"
     inkscape:connector-curvature="0"
     style="opacity:0.1" />
  <circle
     cx="335.44589"
     cy="391.59354"
     r="1.95"
     id="circle225"
     style="opacity:0.1" />
  <circle
     cx="335.44589"
     cy="390.81354"
     r="1.95"
     id="circle227"
     style="fill:#444053" />
  <path
     d="m 326.77588,275.20352 11.84,11.45 17.35,-29 a 1.72,1.72 0 0 1 -0.6,-1.43 c 0.38,-5 -16.6,-15.64 -17.13,-16 14.32,12.95 -8.83,32.79 -11.46,34.98 z"
     id="path229"
     inkscape:connector-curvature="0"
     style="fill:#67647e" />
  <rect
     x="-350.32239"
     y="-376.98969"
     width="27.120001"
     height="57.299999"
     rx="1.7"
     ry="1.7"
     transform="rotate(-178.69)"
     id="rect231"
     style="fill:#d1d9ec" />
  <rect
     x="-350.49017"
     y="-378.25308"
     width="27.120001"
     height="57.299999"
     rx="1.7"
     ry="1.7"
     transform="rotate(-178.69)"
     id="rect233"
     style="fill:#dfe6f5" />
  <circle
     cx="329.55588"
     cy="345.35352"
     r="4.2600002"
     id="circle235"
     style="fill:#ffffff" />
  <path
     d="m 182.74588,437.06352 c 9.74,4.29 73.65,-7 83,-9.74 9.35,-2.74 23,-23.77 16.37,-39 -6.63,-15.23 2.33,-30 2.33,-30 0,0 14,-30 17.15,-35.85 3.15,-5.85 9.62,-22.86 10.52,-25.71 a 2.34,2.34 0 0 0 -0.55,-1.79 c -2.54,-3.83 -12.34,-10.65 -12.34,-10.65 -2.75,1 -3.09,-6.89 -3,-12.68 0.06,-3.24 0.25,-5.82 0.25,-5.82 0,0 -1.29,1.31 -3.4,3.1 -0.77,0.65 -1.65,1.37 -2.63,2.11 a 40.43,40.43 0 0 1 -12.22,6.71 c -9.35,2.77 -22.6,15.54 -22.6,15.54 l 3.9,59.84 c 0,0 -9,56.28 -18.32,67.19 -9.32,10.91 -37.41,10.52 -46.76,10.52 -9.35,0 -11.7,6.23 -11.7,6.23 z"
     id="path237"
     inkscape:connector-curvature="0"
     style="opacity:0.1" />
  <path
     d="m 181.96588,434.73352 c 9.74,4.28 73.65,-7 83,-9.75 9.35,-2.75 23,-23.77 16.37,-39 -6.63,-15.23 2.33,-30 2.33,-30 0,0 14,-30 17.15,-35.85 3.15,-5.85 9.62,-22.86 10.52,-25.71 a 2.35,2.35 0 0 0 -0.55,-1.79 c -2.56,-3.82 -12.31,-10.62 -12.31,-10.62 -2.75,1 -3.09,-6.88 -3,-12.67 0.06,-3.25 0.25,-5.83 0.25,-5.83 0,0 -1.29,1.31 -3.4,3.11 -0.77,0.64 -1.65,1.36 -2.63,2.1 a 40.43,40.43 0 0 1 -12.28,6.71 c -9.35,2.77 -22.6,15.54 -22.6,15.54 l 3.9,59.84 c 0,0 -9,56.28 -18.32,67.19 -9.32,10.91 -37.4,10.52 -46.76,10.52 -9.36,0 -11.67,6.21 -11.67,6.21 z"
     id="path239"
     inkscape:connector-curvature="0"
     style="fill:#67647e" />
  <path
     d="m 287.95588,265.01352 c 0,0 0.37,2.05 1,5.21 2.1,10.7 7.1,34.06 10.71,33.16 2.59,-0.65 7,-5.23 10.36,-9.19 -2.53,-3.86 -12.31,-10.68 -12.31,-10.68 -2.75,1 -3.09,-6.88 -3,-12.67 l -3.15,-2.72 z"
     id="path241"
     inkscape:connector-curvature="0"
     style="opacity:0.1" />
  <path
     d="m 288.73588,263.48352 c 0,0 0.37,2.05 1,5.21 2.1,10.7 7.1,34.06 10.71,33.16 2.59,-0.65 7,-5.23 10.36,-9.19 -2.58,-3.85 -12.33,-10.65 -12.33,-10.65 -2.75,1 -3.09,-6.88 -3,-12.67 l -3.15,-2.72 z"
     id="path243"
     inkscape:connector-curvature="0"
     style="fill:#67647e" />
  <path
     d="m 263.79588,378.22352 c 0,0 19.49,-3.89 24.94,-12.46 5.45,-8.57 42.57,-16 38,-7 -4.57,9 -38,38.29 -38,38.29 l -14.51,20.77 -19.38,-4.92 -8.17,-15.89 z"
     id="path245"
     inkscape:connector-curvature="0"
     style="fill:#efb7b9" />
  <path
     d="m 309.89588,400.46352 c 0,0 -18.87,7 -21.71,16.36 -2.84,9.36 21.71,-16.36 21.71,-16.36 z"
     id="path247"
     inkscape:connector-curvature="0"
     style="opacity:0.1" />
  <path
     d="m 321.46588,411.35352 c 0,0 1.72,9.73 -21.93,9 z"
     id="path249"
     inkscape:connector-curvature="0"
     style="opacity:0.1" />
  <path
     d="m 423.55588,286.65352 8.58,-0.78 c 0,0 9.35,7 16.36,7 7.01,0 11.3,9 11.3,9 0,0 11.69,5.46 15.59,6.24 3.9,0.78 10.52,4.67 8.57,6.23 -1.95,1.56 0.39,5.07 3.9,7.79 3.51,2.72 9,16.76 4.28,18.71 -4.72,1.95 -17.53,5.84 -21,7.79 -3.47,1.95 -7.79,0 -7.79,0 0,0 -20.64,-26.89 -31.17,-21.82 -10.53,5.07 -24.95,5.04 -24.95,5.04 l -11.3,-23.76 z"
     id="path251"
     inkscape:connector-curvature="0"
     style="opacity:0.1" />
  <path
     d="m 244.22588,414.87352 c 1.84,2.74 4.22,4.66 7.27,5.05 a 55,55 0 0 0 22.69,-2.1 c 0,0 -39.25,-12.47 -1.46,-42.79 h -10.1 l -3.4,-1.28 1.54,-8.07 2.22,-72.79 -8.18,-1.95 c 0,0 -6.59,47.93 -8.16,53.77 -1.57,5.84 -2.75,28.45 -2.75,28.45 0,0 -1.56,9.35 -3.9,14 -1.77,3.54 -1.28,19.39 4.23,27.71 z"
     id="path253"
     inkscape:connector-curvature="0"
     style="fill:#67647e" />
  <path
     d="m 245.81588,414.87352 c 1.83,2.74 4.22,4.66 7.27,5.05 a 55,55 0 0 0 22.69,-2.1 c 0,0 -39.25,-12.47 -1.46,-42.81 h -10.09 l -3.37,-1.28 c -5.63,9.85 -14.33,27.34 -15.04,41.14 z"
     id="path255"
     inkscape:connector-curvature="0"
     style="opacity:0.1" />
  <path
     d="m 244.22588,414.87352 c 1.84,2.74 4.22,4.66 7.27,5.05 a 55,55 0 0 0 22.69,-2.1 c 0,0 -39.25,-12.47 -1.46,-42.79 h -10.1 l -3.4,-1.28 c -5.52,9.83 -14.26,27.32 -15,41.12 z"
     id="path257"
     inkscape:connector-curvature="0"
     style="fill:none" />
  <path
     d="m 244.22588,414.87352 c 1.84,2.74 4.22,4.66 7.27,5.05 a 55,55 0 0 0 22.69,-2.1 c 0,0 -39.25,-12.47 -1.46,-42.79 h -10.1 l -3.4,-1.28 c -5.52,9.83 -14.26,27.32 -15,41.12 z"
     id="path259"
     inkscape:connector-curvature="0"
     style="fill:#67647e" />
  <path
     d="m 296.66588,274.13352 a 35.47,35.47 0 0 0 40.13,-7.62 c -0.18,-0.57 -0.35,-1.12 -0.51,-1.67 a 43.31,43.31 0 0 1 -1.57,-9 c 0,0 -44,-15.59 -35.46,0 4.21,7.68 1.38,13.92 -2.59,18.29 z"
     id="path261"
     inkscape:connector-curvature="0"
     style="opacity:0.1" />
  <path
     d="m 275.87588,240.28352 v 0.35 c 0,1.15 0.08,2.29 0.2,3.41 0.12,1.12 0.28,2.14 0.48,3.19 a 35.47,35.47 0 0 0 68.32,4.58 c 0.24,-0.69 0.45,-1.38 0.64,-2.08 a 35.06,35.06 0 0 0 1.28,-9.45 c 0,-0.81 0,-1.63 -0.09,-2.43 a 35.46,35.46 0 0 0 -70.83,2.43 z"
     id="path263"
     inkscape:connector-curvature="0"
     style="fill:#efb7b9" />
  <path
     d="m 275.87588,240.63352 a 15.27,15.27 0 0 1 0.2,3.41 12.67,12.67 0 0 0 0.1,1.85 5.25,5.25 0 0 0 0.38,1.34 c 1.43,3.36 6.11,5.54 9.2,3.37 a 9.86,9.86 0 0 0 2.76,-3.62 c 3.28,-6.09 7.83,-13.09 15,-13.21 3.06,-0.06 5.93,1.23 8.89,2 2.96,0.77 6.46,0.84 8.66,-1.17 1.7,-1.55 2.5,-4.19 4.77,-4.73 2.27,-0.54 4.37,1.54 5.41,3.58 1.04,2.04 1.87,4.44 4,5.5 0.94,0.46 2,0.6 3,1.1 4.24,2.32 2.29,10.45 6.69,11.77 a 3.2,3.2 0 0 0 0.42,0.1 c 0.07,-0.72 0.15,-1.46 0.22,-2.18 q 0.6,-5.94 1.19,-11.88 a 35.46,35.46 0 0 0 -70.83,2.43 z"
     id="path265"
     inkscape:connector-curvature="0"
     style="opacity:0.1" />
  <path
     d="m 338.86588,187.35352 c 4.17,1.77 8.51,4.49 9.44,8.74 0.41,1.87 0.1,3.81 0.2,5.71 0.2,3.84 2,7.4 3.19,11.08 1.19,3.68 1.59,8 -0.75,11.1 -0.73,1 -1.7,1.79 -2.36,2.81 a 11.5,11.5 0 0 0 -1.36,5.22 l -1.93,19.18 c -4.94,-0.93 -2.74,-9.5 -7.12,-11.88 -0.91,-0.5 -2,-0.64 -2.95,-1.11 -2.11,-1 -2.93,-3.45 -4,-5.49 -1.07,-2.04 -3.1,-4.13 -5.41,-3.58 -2.31,0.55 -3.07,3.19 -4.76,4.73 -2.21,2 -5.72,1.92 -8.67,1.17 -2.95,-0.75 -5.83,-2 -8.88,-2 -7.18,0.12 -11.74,7.12 -15,13.21 a 9.89,9.89 0 0 1 -2.77,3.63 c -3.48,2.44 -9,-0.64 -9.57,-4.72 -0.34,-2.29 0.38,-4.84 -0.94,-6.78 -1.32,-1.94 -4.18,-2.35 -6.41,-3.39 -5.7,-2.62 -7.46,-9.73 -6.52,-15.69 0.69,-4.3 2.4,-8.72 1,-12.86 -0.49,-1.43 -1.32,-2.73 -1.77,-4.16 -1.25,-4 0.79,-8.44 4,-11.29 3.21,-2.85 7.42,-4.42 11.56,-5.8 10.63,-3.57 21.79,-7 33.1,-7.74 4.95,-0.32 11.44,-1.87 15.37,1.22 4.67,3.58 7.55,6.25 13.31,8.69 z"
     id="path267"
     inkscape:connector-curvature="0"
     style="fill:#585268" />
  <circle
     cx="329.59589"
     cy="298.4635"
     r="1.95"
     id="circle269"
     style="opacity:0.1" />
  <circle
     cx="329.59589"
     cy="297.68353"
     r="1.95"
     id="circle271"
     style="fill:#444053" />
  <circle
     cx="342.06589"
     cy="420.82352"
     r="1.95"
     id="circle273"
     style="opacity:0.1" />
  <circle
     cx="342.06589"
     cy="420.04352"
     r="1.95"
     id="circle275"
     style="fill:#444053" />
  <circle
     cx="335.44589"
     cy="453.16351"
     r="1.95"
     id="circle277"
     style="opacity:0.1" />
  <circle
     cx="335.44589"
     cy="452.38354"
     r="1.95"
     id="circle279"
     style="fill:#444053" />
  <path
     d="m 268.47588,329.25352 c 0,0 -4.29,29.1 0,34.17 4.29,5.07 0,-34.17 0,-34.17 z"
     id="path281"
     inkscape:connector-curvature="0"
     style="opacity:0.1" />
  <path
     d="m 395.89588,383.29352 c 0,0 8.18,17.63 0,34.53 -8.18,16.9 -13.25,23.77 -10.52,34.56 2.73,10.79 10.52,-69.09 10.52,-69.09 z"
     id="path283"
     inkscape:connector-curvature="0"
     style="opacity:0.1" />
  <path
     d="m 8.9558845,706.71352 c 12.0799975,8.18 30.3999975,4.28 30.3999975,4.28 0,0 27.66,-13.24 35.85,-13.24 8.19,0 28.019998,-8.19 28.019998,-8.19 l -0.67,-5.51 c -8.069998,1.55 -26.429998,5.26 -28.549998,7.07 -2.73,2.34 -36.24,13.64 -36.24,13.64 0,0 -22.819998,-2.85 -29.1699975,-12.23 -4.17,4.34 -5.96,9.9 0.36,14.18 z"
     id="path285"
     inkscape:connector-curvature="0"
     style="opacity:0.1" />
  <g
     id="g293"
     style="opacity:0.1"
     transform="translate(-0.00411552,65.923529)">
    <path
       d="m 450.28,168.67 c 0,-0.42 0,-0.84 0,-1.27 0,0.49 0,1 0,1.46 0.02,-0.06 0,-0.12 0,-0.19 z"
       transform="translate(-101.77,-35.91)"
       id="path287"
       inkscape:connector-curvature="0" />
    <path
       d="m 370.6,201.82 c 2.23,1 5,1.4 6.41,3.38 1.41,1.98 0.6,4.49 0.94,6.78 0.59,4.08 6.09,7.17 9.57,4.72 a 9.89,9.89 0 0 0 2.77,-3.63 c 3.27,-6.09 7.83,-13.09 15,-13.21 3.06,-0.05 5.93,1.24 8.89,2 2.96,0.76 6.46,0.84 8.67,-1.17 1.69,-1.54 2.49,-4.19 4.76,-4.73 2.27,-0.54 4.36,1.54 5.41,3.58 1.05,2.04 1.87,4.44 4,5.5 0.94,0.46 2,0.6 2.95,1.1 4.38,2.39 2.18,11 7.12,11.88 q 1,-9.6 1.93,-19.18 a 11.46,11.46 0 0 1 1.36,-5.16 c 0.66,-1 1.63,-1.84 2.36,-2.82 a 8.59,8.59 0 0 0 1.6,-4.12 10,10 0 0 1 -1.6,7.24 c -0.73,1 -1.7,1.79 -2.36,2.81 A 11.5,11.5 0 0 0 449,202 q -1,9.59 -1.93,19.18 c -4.94,-0.93 -2.74,-9.5 -7.12,-11.88 -0.91,-0.5 -2,-0.64 -2.95,-1.11 -2.11,-1 -2.93,-3.45 -4,-5.49 -1.07,-2.04 -3.1,-4.13 -5.41,-3.58 -2.31,0.55 -3.07,3.19 -4.76,4.73 -2.21,2 -5.72,1.92 -8.67,1.17 -2.95,-0.75 -5.83,-2 -8.89,-2 -7.17,0.12 -11.73,7.12 -15,13.21 a 9.89,9.89 0 0 1 -2.77,3.63 c -3.48,2.44 -9,-0.64 -9.57,-4.72 -0.34,-2.29 0.38,-4.84 -0.94,-6.78 -1.32,-1.94 -4.18,-2.35 -6.41,-3.39 -5.21,-2.4 -7.13,-8.55 -6.69,-14.14 0.4,4.57 2.46,9.03 6.71,10.99 z"
       transform="translate(-101.77,-35.91)"
       id="path289"
       inkscape:connector-curvature="0" />
    <path
       d="m 363.31,169.1 c 0.45,1.43 1.28,2.74 1.77,4.16 a 12,12 0 0 1 0.44,5.13 10,10 0 0 0 -0.44,-2 c -0.49,-1.43 -1.32,-2.73 -1.77,-4.16 a 8.78,8.78 0 0 1 -0.23,-4.07 8.2,8.2 0 0 0 0.23,0.94 z"
       transform="translate(-101.77,-35.91)"
       id="path291"
       inkscape:connector-curvature="0" />
  </g>
  <path
     d="m 481.36588,520.06352 -80.32,-10.05 a 3.07,3.07 0 0 1 -1.83,-5.18 l 33.69,-35 a 3.06,3.06 0 0 1 2.56,-0.92 l 61.41,6.88 a 3.07,3.07 0 0 1 2.52,4.16 l -14.78,38.19 a 3.08,3.08 0 0 1 -3.25,1.92 z"
     id="path295"
     inkscape:connector-curvature="0"
     style="fill:#746d83" />
  <path
     d="m 481.36588,520.06352 -80.32,-10.05 a 3.07,3.07 0 0 1 -1.83,-5.18 l 33.69,-35 a 3.06,3.06 0 0 1 2.56,-0.92 l 61.41,6.88 a 3.07,3.07 0 0 1 2.52,4.16 l -14.78,38.19 a 3.08,3.08 0 0 1 -3.25,1.92 z"
     id="path297"
     inkscape:connector-curvature="0"
     style="opacity:0.1" />
  <path
     d="m 480.45588,519.16352 -80.31,-10.09 a 3.08,3.08 0 0 1 -1.83,-5.19 l 33.69,-35 a 3.1,3.1 0 0 1 2.56,-0.93 l 61.4,6.88 a 3.08,3.08 0 0 1 2.53,4.17 l -14.79,38.19 a 3.09,3.09 0 0 1 -3.25,1.97 z"
     id="path299"
     inkscape:connector-curvature="0"
     style="fill:#746d83" />
  <path
     d="m 432.59588,482.59352 24.12,1.94 34.4,-2.24 h -0.59 l -31.87,-3.08 c -7.3,-2.68 -2.24,-18.46 -2.24,-18.46 l -24.41,1.24 -1.95,0.1 c -8.63,20.2 2.54,20.5 2.54,20.5 z"
     id="path301"
     inkscape:connector-curvature="0"
     style="fill:#d1d9ec" />
  <path
     d="m 432.59588,482.59352 24.12,1.94 34.4,-2.24 h -0.59 l -34.78,1.24 -23.3,-2.53 c -6.62,-1.74 -2.83,-13.22 -0.44,-19 l -1.95,0.1 c -8.63,20.19 2.54,20.49 2.54,20.49 z"
     id="path303"
     inkscape:connector-curvature="0"
     style="opacity:0.1" />
  <path
     d="m 390.34588,339.16352 7.38,105.85 1,13.89 a 6,6 0 0 0 6.06,5.61 h 2.24 l 111.1,-0.67 a 3.13,3.13 0 0 0 3.08,-3.43 l -1,-13.9 -7.82,-93.08 a 6.39,6.39 0 0 0 -4.27,-5.4 l -105.89,-15.88 c -3.6,-1.25 -7.27,-0.81 -9.56,1.1 a 6.72,6.72 0 0 0 -2.32,5.91 z"
     id="path305"
     inkscape:connector-curvature="0"
     style="fill:#4c4c56" />
  <path
     d="m 397.72588,445.01352 1,13.89 a 6,6 0 0 0 6.06,5.61 h 2.24 l 111.1,-0.67 a 3.13,3.13 0 0 0 3.08,-3.43 l -1,-13.9 z"
     id="path307"
     inkscape:connector-curvature="0"
     style="fill:#dfe6f5" />
  <ellipse
     cx="472.20584"
     cy="456.53351"
     rx="1.49"
     ry="2.98"
     id="ellipse309"
     style="fill:#ffffff" />
  <path
     d="m 467.88588,496.14352 c 0,0 -30.38,-11.47 -38.57,-3.13 0,0 -1.34,2.54 4.17,3.13 l 22.26,1.79 c 0,0 9.16,0.89 12.14,-1.79 z"
     id="path311"
     inkscape:connector-curvature="0"
     style="fill:#d1d9ec" />
  <path
     d="m 467.07588,493.16352 c -6,-2.44 -23.93,-8.75 -35.43,-1.77 0,0 12.72,-1.41 19.71,2.63 6.99,4.04 16.53,2.12 16.53,2.12 l 0.14,-0.25 a 1.93,1.93 0 0 0 -0.95,-2.73 z"
     id="path313"
     inkscape:connector-curvature="0"
     style="fill:#dfe6f5" />
  <path
     d="m 390.34588,339.16352 8.34,119.76 a 6,6 0 0 0 6.06,5.61 h 2.24 a 21.34,21.34 0 0 1 -3.88,-5 c 0,0 -8.19,-120.34 -8.79,-123.32 a 6.1,6.1 0 0 0 -1.65,-2.94 6.72,6.72 0 0 0 -2.32,5.89 z"
     id="path315"
     inkscape:connector-curvature="0"
     style="fill:#dfe6f5" />
  <path
     d="m 390.34588,339.16352 8.34,119.76 a 6,6 0 0 0 6.06,5.61 h 2.24 a 21.34,21.34 0 0 1 -3.88,-5 c 0,0 -8.19,-120.34 -8.79,-123.32 a 6.1,6.1 0 0 0 -1.65,-2.94 6.72,6.72 0 0 0 -2.32,5.89 z"
     id="path317"
     inkscape:connector-curvature="0"
     style="opacity:0.1" />
  <path
     d="m 376.01588,372.36352 c 9,-2 30,-8.16 30,-8.16 l 3.76,-0.76 c -0.05,-13.08 -0.7,-25.75 -0.94,-30 h -0.09 c 0,0 -17.93,5.85 -22.21,9 -4.28,3.15 -17.54,2.33 -17.54,2.33 0,0 -20.64,1.11 -37.77,20.24 -17.13,19.13 35.83,9.32 44.79,7.35 z"
     id="path319"
     inkscape:connector-curvature="0"
     style="opacity:0.1" />
  <path
     d="m 463.60588,337.59352 a 5.21,5.21 0 0 1 1.17,8.74 c -4.75,3.93 -11.68,8.63 -18.3,9.29 -11,1.11 -37.6,6.44 -40.24,7 a 3.2,3.2 0 0 0 -0.42,0.1 c -2.19,0.64 -21.35,6.25 -29.8,8.1 -9,2 -62,11.71 -44.81,-7.38 15.78,-17.58 34.53,-20 37.42,-20.23 a 4,4 0 0 1 0.69,0 c 2,0.09 13.32,0.48 17.23,-2.35 a 36.81,36.81 0 0 1 6.44,-3.21 123.2,123.2 0 0 1 26.35,-7.6 l 18.33,-3.2 a 5.26,5.26 0 0 1 3.08,0.4 z"
     id="path321"
     inkscape:connector-curvature="0"
     style="fill:#efb7b9" />
  <path
     d="m 425.11588,286.65352 8.57,-0.78 c 0,0 9.36,7 16.37,7 7.01,0 11.3,9 11.3,9 0,0 11.69,5.46 15.59,6.24 3.9,0.78 10.52,4.67 8.57,6.23 -1.95,1.56 0.39,5.07 3.9,7.79 3.51,2.72 9,16.76 4.28,18.71 -4.72,1.95 -17.53,5.84 -21,7.79 -3.47,1.95 -7.79,0 -7.79,0 0,0 -20.68,-26.91 -31.21,-21.84 -10.53,5.07 -24.94,5.06 -24.94,5.06 l -11.3,-23.76 z"
     id="path323"
     inkscape:connector-curvature="0"
     style="fill:#67647e" />
  <path
     d="m 938.22584,776.65352 a 16.86,16.86 0 0 0 -2.27,4.29 c -0.15,0.37 -0.28,0.8 -0.42,1.21 a 4.65,4.65 0 0 0 -0.79,-0.28 11,11 0 0 0 -3.57,-0.3 c 0,-0.47 0,-0.95 0.07,-1.47 0.14,-5.27 -0.48,-12.61 -5.5,-9.5 -4.83,3 -1.39,8 1.72,11.2 l 0.8,0.79 c -2.83,2 -3.37,6.73 -3.85,11.64 -0.48,4.91 -4.64,10.28 -7.39996,13.33 -0.28,0.32 -0.54,0.59 -0.78,0.85 a 10.15,10.15 0 0 0 -8,-2.07 l -0.37,-1.35 c -2.24,-8.09 -6.89,-22.1 -12.82,-25.17 0.25,-0.31 0.51,-0.63 0.78,-1 2.52,-3.29 5.35,-8.19 1.16,-9.44 -4.19,-1.25 -4.56,4.25 -4.33,8.36 q 0,0.78 0.12,1.47 a 6.15,6.15 0 0 0 -4.39,2.14 l -0.64,-0.77 c -3.4,-4 -9.64,-10.37 -11.52,-5.56 -1.76,4.48 3.73,10.3 7.59,13.67 l 0.24,0.21 c -2.6,10.51 8.72,19.08 14.81,22.83 l 0.78,0.48 c -8.4,9.9 -13.58,28.46 -13.58,28.46 l 23.52,4.2 c 0,0 15.58996,-13.46 13.59996,-26.1 h 0.16 c 15.58,-3.12 19.13,-19.74 16.7,-29.6 l 0.28,-0.12 a 17.69,17.69 0 0 0 7.21,-5.46 c 4.31,-6.05 -4.84,-12.89 -9.31,-6.94 z"
     id="path325"
     inkscape:connector-curvature="0"
     style="fill:#ff6347" />
  <path
     d="m 938.22584,776.65352 a 16.86,16.86 0 0 0 -2.27,4.29 c -0.15,0.37 -0.28,0.8 -0.42,1.21 a 4.65,4.65 0 0 0 -0.79,-0.28 11,11 0 0 0 -3.57,-0.3 c 0,-0.47 0,-0.95 0.07,-1.47 0.14,-5.27 -0.48,-12.61 -5.5,-9.5 -4.83,3 -1.39,8 1.72,11.2 l 0.8,0.79 c -2.83,2 -3.37,6.73 -3.85,11.64 -0.48,4.91 -4.64,10.28 -7.39996,13.33 -0.28,0.32 -0.54,0.59 -0.78,0.85 a 10.15,10.15 0 0 0 -8,-2.07 l -0.37,-1.35 c -2.24,-8.09 -6.89,-22.1 -12.82,-25.17 0.25,-0.31 0.51,-0.63 0.78,-1 2.52,-3.29 5.35,-8.19 1.16,-9.44 -4.19,-1.25 -4.56,4.25 -4.33,8.36 q 0,0.78 0.12,1.47 a 6.15,6.15 0 0 0 -4.39,2.14 l -0.64,-0.77 c -3.4,-4 -9.64,-10.37 -11.52,-5.56 -1.76,4.48 3.73,10.3 7.59,13.67 l 0.24,0.21 c -2.6,10.51 8.72,19.08 14.81,22.83 l 0.78,0.48 c -8.4,9.9 -13.58,28.46 -13.58,28.46 l 23.52,4.2 c 0,0 15.58996,-13.46 13.59996,-26.1 h 0.16 c 15.58,-3.12 19.13,-19.74 16.7,-29.6 l 0.28,-0.12 a 17.69,17.69 0 0 0 7.21,-5.46 c 4.31,-6.05 -4.84,-12.89 -9.31,-6.94 z"
     id="path327"
     inkscape:connector-curvature="0"
     style="opacity:0.1" />
  <path
     d="m 891.39588,783.43352 -2.75,8.05 c 0,0 -1.52,-1.08 -3.45,-2.78 -3.86,-3.37 -9.35,-9.19 -7.59,-13.67 1.88,-4.81 8.12,1.54 11.52,5.56 1.37,1.6 2.27,2.84 2.27,2.84 z"
     id="path329"
     inkscape:connector-curvature="0"
     style="fill:#ff6347" />
  <path
     d="m 897.22588,778.83352 a 38.1,38.1 0 0 1 -2.7,3.18 39,39 0 0 1 -0.49,-4.24 c -0.23,-4.11 0.2,-9.59 4.33,-8.36 4.13,1.23 1.36,6.13 -1.14,9.42 z"
     id="path331"
     inkscape:connector-curvature="0"
     style="fill:#ff6347" />
  <path
     d="m 932.67584,780.10352 c -0.09,2.65 -0.35,4.77 -0.35,4.77 a 34.68,34.68 0 0 1 -3.43,-3.07 c -3.11,-3.22 -6.55,-8.21 -1.72,-11.2 5.05,-3.11 5.64,4.23 5.5,9.5 z"
     id="path333"
     inkscape:connector-curvature="0"
     style="fill:#ff6347" />
  <path
     d="m 948.91584,783.57352 a 17.69,17.69 0 0 1 -7.21,5.46 19.38,19.38 0 0 1 -2.42,0.88 l -3.24,-4.55 a 32.17,32.17 0 0 1 1.34,-4.42 16.86,16.86 0 0 1 2.27,-4.29 c 4.48,-5.95 13.63,0.89 9.26,6.92 z"
     id="path335"
     inkscape:connector-curvature="0"
     style="fill:#ff6347" />
  <path
     d="m 889.12588,780.59352 c 1.37,1.6 2.27,2.84 2.27,2.84 l -2.75,8.05 c 0,0 -1.52,-1.08 -3.45,-2.78 a 15.68,15.68 0 0 1 3.09,-7.07 c 0.28,-0.38 0.57,-0.72 0.84,-1.04 z"
     id="path337"
     inkscape:connector-curvature="0"
     style="opacity:0.1" />
  <path
     d="m 897.22588,778.83352 a 38.1,38.1 0 0 1 -2.7,3.18 39,39 0 0 1 -0.49,-4.24 5.55,5.55 0 0 1 3.19,1.06 z"
     id="path339"
     inkscape:connector-curvature="0"
     style="opacity:0.1" />
  <path
     d="m 910.72588,810.79352 -6.84,3 a 41.38,41.38 0 0 1 -3.64,-2.06 c -7.19,-4.42 -21.65,-15.55 -12,-28.67 9.65,-13.12 17.77,10.41 21,21.92 0.98,3.45 1.48,5.81 1.48,5.81 z"
     id="path341"
     inkscape:connector-curvature="0"
     style="fill:#ff6347" />
  <path
     d="m 928.89584,781.80352 a 5.67,5.67 0 0 1 3.78,-1.7 c -0.09,2.65 -0.35,4.77 -0.35,4.77 a 34.68,34.68 0 0 1 -3.43,-3.07 z"
     id="path343"
     inkscape:connector-curvature="0"
     style="opacity:0.1" />
  <path
     d="m 941.70584,789.01352 a 19.38,19.38 0 0 1 -2.42,0.88 l -3.24,-4.55 a 32.17,32.17 0 0 1 1.34,-4.42 c 2.09,1.24 3.63,4.28 4.32,8.09 z"
     id="path345"
     inkscape:connector-curvature="0"
     style="opacity:0.1" />
  <path
     d="m 924.72584,818.75352 c -0.38,0.08 -0.76,0.15 -1.15,0.21 -22.92996,3.48 -7.55996,-8.89 -7.55996,-8.89 0,0 1,-0.95 2.42996,-2.51 2.76,-3 6.93,-8.39 7.4,-13.33 0.72,-7.43 1.56,-14.4 10.33,-12.36 8.61,2.02 10.25,32.54 -11.45,36.88 z"
     id="path347"
     inkscape:connector-curvature="0"
     style="fill:#ff6347" />
  <rect
     x="880.4859"
     y="875.84351"
     width="43.810001"
     height="11.52"
     id="rect349"
     style="fill:#d4dfec" />
  <rect
     x="873.52594"
     y="838.4035"
     width="57.240002"
     height="40.200001"
     id="rect351"
     style="fill:#d4dfec" />
  <rect
     x="880.4859"
     y="875.84351"
     width="43.810001"
     height="11.52"
     id="rect353"
     style="opacity:0.1" />
  <rect
     x="873.52594"
     y="838.4035"
     width="57.240002"
     height="40.200001"
     id="rect355"
     style="opacity:0.1" />
  <rect
     x="883.36591"
     y="875.84351"
     width="43.810001"
     height="11.52"
     id="rect357"
     style="fill:#d4dfec" />
  <path
     d="m 909.22588,805.01352 c 1,3.44 1.48,5.8 1.48,5.8 l -6.84,3 a 41.38,41.38 0 0 1 -3.64,-2.06 c 2.7,-3.41 5.72,-5.97 9,-6.74 z"
     id="path359"
     inkscape:connector-curvature="0"
     style="opacity:0.1" />
  <path
     d="m 924.72584,818.75352 c -0.38,0.08 -0.76,0.15 -1.15,0.21 -22.92996,3.48 -7.55996,-8.89 -7.55996,-8.89 0,0 1,-0.95 2.42996,-2.51 4.28,3.45 6.05,7.29 6.28,11.19 z"
     id="path361"
     inkscape:connector-curvature="0"
     style="opacity:0.1" />
  <path
     d="m 887.44588,840.68352 c 0,0 12.84,-46 30.83996,-31.8 18,14.2 -7.31996,36 -7.31996,36 z"
     id="path363"
     inkscape:connector-curvature="0"
     style="fill:#ff6347" />
  <circle
     cx="893.9259"
     cy="790.2735"
     r="1.4400001"
     id="circle365"
     style="opacity:0.1" />
  <circle
     cx="893.80591"
     cy="796.99353"
     r="1.4400001"
     id="circle367"
     style="opacity:0.1" />
  <circle
     cx="935.56598"
     cy="791.59351"
     r="1.4400001"
     id="circle369"
     style="opacity:0.1" />
  <circle
     cx="901.96588"
     cy="826.04352"
     r="1.4400001"
     id="circle371"
     style="opacity:0.1" />
  <circle
     cx="932.56598"
     cy="802.75354"
     r="1.4400001"
     id="circle373"
     style="opacity:0.1" />
  <circle
     cx="917.68591"
     cy="817.64349"
     r="1.4400001"
     id="circle375"
     style="opacity:0.1" />
  <circle
     cx="898.84589"
     cy="793.1535"
     r="1.4400001"
     id="circle377"
     style="opacity:0.1" />
  <circle
     cx="931.6059"
     cy="795.91351"
     r="1.4400001"
     id="circle379"
     style="opacity:0.1" />
  <circle
     cx="926.68585"
     cy="807.07355"
     r="1.4400001"
     id="circle381"
     style="opacity:0.1" />
  <circle
     cx="911.56592"
     cy="824.9635"
     r="1.4400001"
     id="circle383"
     style="opacity:0.1" />
  <circle
     cx="908.44592"
     cy="817.88354"
     r="1.4400001"
     id="circle385"
     style="opacity:0.1" />
  <circle
     cx="901.00592"
     cy="801.91351"
     r="1.4400001"
     id="circle387"
     style="opacity:0.1" />
  <rect
     x="883.36591"
     y="875.84351"
     width="43.810001"
     height="4.21"
     id="rect389"
     style="opacity:0.1" />
  <rect
     x="876.40588"
     y="838.4035"
     width="57.240002"
     height="40.200001"
     id="rect391"
     style="fill:#d4dfec" />
  <circle
     cx="913.4859"
     cy="831.44354"
     r="1.4400001"
     id="circle393"
     style="opacity:0.1" />
  <circle
     cx="904.84589"
     cy="833.24353"
     r="1.4400001"
     id="circle395"
     style="opacity:0.1" />
</svg>
